<?xml version="1.0" encoding="UTF-8"?>
<svg id="a" xmlns="http://www.w3.org/2000/svg" viewBox="0 0 800 600.7"><path d="M344.94,240.7c8.75-10.13,16.9-20.75,21.43-33.45,3.53-9.9,6.26-20.12,8.71-30.36,3.57-14.9,9.37-28.62,18.99-40.66,1.23-1.54,2.07-3.61,2.45-5.56,3.85-19.73,7.57-39.49,11.34-59.24,.22-1.14,.52-2.26,.78-3.39l1.14-.82c.29,.72,.44,1.55,.9,2.15,8.66,11.5,17.42,22.92,26,34.49,1.76,2.37,3.41,3.46,6.58,3.19,3.57-.3,7.27,.32,10.85,.92,2.47,.41,4.29,0,6.14-1.76,7-6.66,14.13-13.19,21.21-19.77,.7-.65,1.43-1.27,2.62-2.33,0,4.87,.06,9.16-.01,13.44-.09,5.72-.42,11.44-.33,17.15,.02,1.26,1.08,3.03,2.18,3.65,12.88,7.29,22.63,17.33,28.23,31.18,2.58,6.39,6.76,11.29,13.21,14.07,.4,.17,.71,.56,1.07,.85l-.07,.99h-13.42l-.32,1.04c.47,.79,.88,1.63,1.42,2.37,7.6,10.55,4.96,25.63-5.79,33.3-5.41,3.86-11.65,4.99-18.04,5.99-5.82,.91-11.67,2.03-17.26,3.81-5.8,1.85-10.85,5.24-14,10.77-2.39,4.2-2.1,5.13,1.56,8.11,17.23,14.03,27.13,32.21,30.61,54.05,3.61,22.65-1.91,43.67-11.59,63.87-5.88,12.27-12.26,24.3-18.2,36.54-9.15,18.87-15.69,38.57-17.32,59.59-1.48,19.1,.86,37.6,10.22,54.76,2.1,3.86,4.45,6.56,9.4,6.56,4.82,0,8.88,2.31,12.02,6.1,.65,.79,1.64,1.53,2.6,1.78,13.44,3.52,26.9,4.26,40.12-.81,15.23-5.84,22.99-21.35,18.17-35.78-3.4-10.15-13.27-16.39-22.62-14.29-6.98,1.57-11.92,7.92-11.12,14.31,.53,4.2,3.73,7.63,7.49,8.01,4.01,.41,6.79-1.7,8.36-6.31,.12-.35,.29-.67,.47-1.07,3.44,3.95,2.26,10.09-2.44,13.35-6.97,4.84-16.92,2.27-21.76-5.62-5.44-8.86-2.95-21.19,5.77-28.54,10.54-8.89,27.31-8.44,38.14,1.01,15.64,13.65,16.89,38.73,2.89,54.69-9.35,10.66-21.43,15.22-35.12,15.78-13.59,.55-27.21,.6-40.81,.61-45.57,.07-91.14,.07-136.72-.02-9.37-.02-18.75-.61-27.84-3.19-35.24-10.02-56.87-33.34-65.84-68.5-5.34-20.93-3.47-41.89,1.41-62.67,7.26-30.88,21.93-58.17,40.73-83.42,16.49-22.15,35.71-41.83,55.57-60.92,2.84-2.73,5.53-5.62,8.29-8.44,1.62,2.3,2.32-.2,3.01-.77,12.2-10.15,25.94-15.58,42.01-14.12,19.43,1.76,36.82,19.37,33.08,41.03-2.11,12.2-11.73,24.45-27.88,21.93-.51-.08-1.05,.06-1.81,.11,2.69,2.42,7.61,4.11,12.23,4.35,15.63,.79,29.07-11.92,30.28-28.63,1.46-20.18-12.35-38.83-32.42-43.8-17.67-4.38-33.35-.04-47.54,10.81-3.19,2.44-6.27,5.01-9.4,7.52Zm71.34,176.14c-.06-1.12-.02-1.68-.13-2.2-2.92-14.99-9.31-28.33-19.99-39.27-18.75-19.22-41.75-25.76-67.91-21.26-38.23,6.57-64.69,44.3-58.54,83.09,2.31,14.61,8.39,27.3,19.67,37.1,12.18,10.58,26.51,15.13,42.59,14.64,30.64-.94,54.57-24.91,51.25-56.18-1.36-12.77-6.62-23.7-17.43-31.32-11.77-8.29-28.09-7.55-37.73,1.73-1.87,1.81-3.32,4.06-4.96,6.11,.65,.39,.76,.4,.83,.35,.23-.18,.46-.38,.66-.59,5.78-6.17,12.9-7.62,20.56-4.83,7.99,2.91,12.19,9.14,12.6,17.65,.52,10.89-5.93,20.39-16.28,24.36-15.47,5.92-32.55,.36-41.19-14.12-9.51-15.94-9.01-32.49,.61-47.98,11.76-18.93,29.97-26.49,51.67-24.35,27.58,2.72,46.79,17.84,58.43,42.73,2.07,4.42,3.4,9.17,5.3,14.37Zm-30.61-153.41c-5.7,1.78-9.85,4.59-13.13,8.61-8.2,10.08-9.88,21.72-7.48,34.07,4.92,25.22,29.95,45.31,61.08,41,35.82-4.96,58.69-41.95,48.08-76.64-4.68-15.32-14.24-27.05-26.36-37.01-.21-.17-.58-.15-.93-.24,2.92,4.22,5.96,8.11,8.45,12.33,12.92,21.84,8.2,49.36-11.01,65.02-18.88,15.39-45.46,12.94-59.43-5.84-7.91-10.63-9.22-22.41-3.74-34.65,.97-2.17,2.66-4.01,4.47-6.67Zm49.16,242.01c-.72-1.46-1.16-2.31-1.56-3.18-2.02-4.38-4.28-8.67-6-13.16-4.46-11.64-5.74-23.89-6.52-36.22-.26-4.13-.6-8.26-.9-12.4h-.98c-.1,1.12-.23,2.22-.29,3.33-1.09,22.71-10.17,41.61-27,56.85-1.41,1.27-2.54,2.85-4.23,4.77h47.48Zm-7.84-105.31c9.73-22.63,24.95-41.6,38.38-61.71-8.1,8.74-17.11,16.08-28.09,20.83-10.96,4.74-22.49,5.69-34.48,5.15,10.09,10.71,17.96,22.49,24.19,35.73Zm-58.66-62.58l.52-.64c-.78-1-1.57-1.99-2.35-3-.78-1.01-1.58-2.02-2.31-3.07-12.63-18.03-15.2-37.18-5.65-57.27,6.48-13.64,21.9-20.38,34.31-17.85,.71,.14,1.48,.02,2.22,.02-.7-.83-1.52-1.28-2.39-1.6-4.84-1.74-9.88-2.16-14.88-1.24-15.95,2.92-25.24,13.28-29.45,28.2-5.28,18.7,.28,35,12.74,49.29,2.22,2.55,4.83,4.78,7.25,7.15Zm82.11-198.17v.57c.95,.17,1.89,.35,2.84,.52,5.15,.97,9.91,2.82,13.48,6.79,7.61,8.46,17.44,12.2,28.37,13.73,3.21,.45,3.76-.19,2.9-3.31-2.76-9.97-10.59-17.1-21.12-18.02-8.51-.74-17.11-.43-25.67-.57-.26,0-.53,.18-.8,.28Zm-37.07-60.2l-.91,.12c-.05,1.05-.21,2.1-.13,3.14,.41,4.91,.95,9.81,1.34,14.72,.58,7.34,.8,14.63-3.55,21.15-.21,.31-.11,.82-.2,1.75,2.85-1.71,5.19-3.34,7.73-4.57,2.53-1.22,3.06-2.89,2.45-5.5-1.76-7.59-3.36-15.21-5.02-22.82-.58-2.66-1.14-5.33-1.71-7.99Zm80.76,103.9l-.18-1.02c-21.43,3.65-42.86,7.3-64.29,10.96,.08,.47,.16,.94,.25,1.41,21.41-3.78,42.82-7.57,64.23-11.35Zm-65.23-4.66l.05,.65h65.87v-.65h-65.91Zm55.63,15.47l-.39-.96c-17.17,7.28-34.35,14.56-51.52,21.84l.42,.97c17.17-7.28,34.33-14.57,51.5-21.85Z"/></svg>